<svg xmlns="http://www.w3.org/2000/svg" viewBox="0 0 1200 700" role="img" aria-label="Hotel hero art">
  <defs>
    <linearGradient id="g1" x1="0" y1="0" x2="1" y2="1">
      <stop offset="0%" stop-color="#fff6f1"/>
      <stop offset="100%" stop-color="#ffe1d6"/>
    </linearGradient>
    <linearGradient id="g2" x1="0" y1="0" x2="0" y2="1">
      <stop offset="0%" stop-color="#ff886b"/>
      <stop offset="100%" stop-color="#f5512f"/>
    </linearGradient>
  </defs>
  <rect width="1200" height="700" fill="url(#g1)"/>
  <circle cx="1000" cy="110" r="140" fill="#ffd9c9"/>
  <rect x="120" y="180" width="680" height="420" rx="24" fill="#ffffff" stroke="#f7b9a6" stroke-width="8"/>
  <rect x="170" y="230" width="170" height="140" rx="14" fill="#ffe5dc"/>
  <rect x="380" y="230" width="170" height="140" rx="14" fill="#ffe5dc"/>
  <rect x="590" y="230" width="170" height="140" rx="14" fill="#ffe5dc"/>
  <rect x="170" y="405" width="170" height="140" rx="14" fill="#ffe5dc"/>
  <rect x="380" y="405" width="170" height="140" rx="14" fill="#ffe5dc"/>
  <rect x="590" y="405" width="170" height="140" rx="14" fill="#ffe5dc"/>
  <rect x="860" y="240" width="210" height="360" rx="28" fill="url(#g2)"/>
  <rect x="915" y="300" width="100" height="210" rx="12" fill="#fff2ec"/>
  <text x="900" y="160" font-size="56" font-family="Arial, sans-serif" font-weight="700" fill="#d04528">AUTOGUIDE STAY</text>
</svg>
